<?xml version="1.0" encoding="UTF-8"?>
<svg width="162px" height="66px" viewBox="0 0 162 66" version="1.1" xmlns="http://www.w3.org/2000/svg" xmlns:xlink="http://www.w3.org/1999/xlink">
    <!-- Generator: Sketch 48.2 (47327) - http://www.bohemiancoding.com/sketch -->
    <title>IBM_logo</title>
    <desc>Created with Sketch.</desc>
    <defs></defs>
    <g id="Mockup---FINAL" stroke="none" stroke-width="1" fill="none" fill-rule="evenodd" transform="translate(-150.000000, -1928.000000)">
        <g id="IBM_logo" transform="translate(150.000000, 1928.000000)" fill="#1F70C1" fill-rule="nonzero">
            <path d="M0,0 L0,4.48785221 L31.5330473,4.48785221 L31.5330473,0 L0,0 Z M36.0007043,0 L36.0007043,4.48785221 L80.9367179,4.48785221 C80.9367179,4.48785221 76.3467525,0 70.2675,0 L36.0007043,0 Z M89.7517973,0 L89.7517973,4.48785221 L116.937422,4.48785221 L115.32375,0 L89.7517973,0 Z M136.428047,0 L134.814375,4.48785221 L161.753203,4.48785221 L161.753203,0 L136.428047,0 Z M0,8.72778941 L0,13.2156403 L31.5330473,13.2156403 L31.5330473,8.72778941 L0,8.72778941 Z M36.0007043,8.73414639 L36.0007043,13.2156403 L86.1510946,13.2156403 C86.1510946,13.2156403 85.5653625,9.76159692 84.54375,8.73414639 L36.0007043,8.73414639 Z M89.7517973,8.73414639 L89.7517973,13.2156403 L119.91797,13.2156403 L118.42453,8.73414639 L89.7517973,8.73414639 Z M133.200703,8.73414639 L131.707265,13.2156403 L161.753203,13.2156403 L161.753203,8.73414639 L133.200703,8.73414639 Z M9.06187435,17.4555788 L9.06187435,21.9497855 L22.7179679,21.9497855 L22.7179679,17.4555788 L9.06187435,17.4555788 Z M45.0625793,17.4555788 L45.0625793,21.9497855 L58.7186707,21.9497855 L58.7186707,17.4555788 L45.0625793,17.4555788 Z M72.0014071,17.4555788 L72.0014071,21.9497855 L85.6575,21.9497855 C85.6575016,21.9497855 86.5244527,19.5763878 86.5244527,17.4555788 L72.0014071,17.4555788 Z M98.8136723,17.4555788 L98.8136723,21.9497855 L123.025079,21.9497855 L121.411407,17.4555788 L98.8136723,17.4555788 Z M130.226485,17.4555788 L128.606485,21.9497855 L152.938125,21.9497855 L152.938125,17.4555788 L130.226485,17.4555788 Z M9.06187435,26.189726 L9.06187435,30.677575 L22.7179679,30.677575 L22.7179679,26.189726 L9.06187435,26.189726 Z M45.0625793,26.189726 L45.0625793,30.677575 L79.9432043,30.677575 C79.943206,30.6775733 82.8610252,28.3748133 83.7907027,26.189726 L45.0625793,26.189726 Z M98.8136723,26.189726 L98.8136723,30.677575 L112.469765,30.677575 L112.469765,28.179381 L113.336718,30.677575 L138.351797,30.677575 L139.282032,28.179381 L139.282032,30.677575 L152.938125,30.677575 L152.938125,26.189726 L127.30289,26.189726 L125.942343,29.9910485 L124.57547,26.189726 L98.8136723,26.189726 Z M9.06187435,34.9175154 L9.06187435,39.4053644 L22.7179679,39.4053644 L22.7179679,34.9175154 L9.06187435,34.9175154 Z M45.0625793,34.9175154 L45.0625793,39.4053644 L83.7907027,39.4053644 C82.8608243,37.2273974 79.9432043,34.9175154 79.9432043,34.9175154 L45.0625793,34.9175154 Z M98.8136723,34.9175154 L98.8136723,39.4053644 L112.469765,39.4053644 L112.469765,34.9175154 L98.8136723,34.9175154 Z M114.95039,34.9175154 L116.602032,39.4053644 L135.358595,39.4053644 L136.92797,34.9175154 L114.95039,34.9175154 Z M139.282032,34.9175154 L139.282032,39.4053644 L152.938125,39.4053644 L152.938125,34.9175154 L139.282032,34.9175154 Z M9.06187435,43.6453048 L9.06187435,48.1331538 L22.7179679,48.1331538 L22.7179679,43.6453048 L9.06187435,43.6453048 Z M45.0625793,43.6453048 L45.0625793,48.1331538 L58.7186707,48.1331538 L58.7186707,43.6453048 L45.0625793,43.6453048 Z M72.0014071,43.6453048 L72.0014071,48.1331538 L86.5244527,48.1331538 C86.524456,46.0151981 85.6575,43.6453048 85.6575,43.6453048 L72.0014071,43.6453048 Z M98.8136723,43.6453048 L98.8136723,48.1331538 L112.469765,48.1331538 L112.469765,43.6453048 L98.8136723,43.6453048 Z M118.051171,43.6453048 L119.652187,48.1331538 L132.226171,48.1331538 L133.839843,43.6453048 L118.051171,43.6453048 Z M139.282032,43.6453048 L139.282032,48.1331538 L152.938125,48.1331538 L152.938125,43.6453048 L139.282032,43.6453048 Z M0.24679566,52.3730942 L0.24679566,56.867301 L31.7798429,56.867301 L31.7798429,52.3730942 L0.24679566,52.3730942 Z M36.0007043,52.3730942 L36.0007043,56.867301 L84.54375,56.867301 C85.5653625,55.8382239 86.1510946,52.3730942 86.1510946,52.3730942 L36.0007043,52.3730942 Z M89.9985929,52.3730942 L89.9985929,56.867301 L112.469765,56.867301 L112.469765,52.3730942 L89.9985929,52.3730942 Z M121.15828,52.3730942 L122.803593,56.867301 L129.201328,56.867301 L130.74539,52.3730942 L121.15828,52.3730942 Z M139.282032,52.3730942 L139.282032,56.867301 L162,56.867301 L162,52.3730942 L139.282032,52.3730942 Z M0.24679566,61.1072398 L0.24679566,65.595092 L31.7798429,65.595092 L31.7798429,61.1072398 L0.24679566,61.1072398 Z M36.0007043,61.1072398 L36.0007043,65.5887359 L70.2675,65.5887359 C76.3467509,65.5887326 80.9367179,61.1072398 80.9367179,61.1072398 L36.0007043,61.1072398 Z M89.9985929,61.1072398 L89.9985929,65.595092 L112.469765,65.595092 L112.469765,61.1072398 L89.9985929,61.1072398 Z M124.278047,61.1072398 L125.860079,65.5823764 L126.132187,65.5887359 L127.739532,61.1072398 L124.278047,61.1072398 Z M139.282032,61.1072398 L139.282032,65.595092 L162,65.595092 L162,61.1072398 L139.282032,61.1072398 Z" id="Shape"></path>
        </g>
    </g>
</svg>