<?xml version="1.0" encoding="UTF-8"?>
<svg width="162px" height="34px" viewBox="0 0 162 34" version="1.1" xmlns="http://www.w3.org/2000/svg" xmlns:xlink="http://www.w3.org/1999/xlink">
    <!-- Generator: Sketch 48.2 (47327) - http://www.bohemiancoding.com/sketch -->
    <title>Lenovo_logo_2015</title>
    <desc>Created with Sketch.</desc>
    <defs></defs>
    <g id="Mockup---FINAL" stroke="none" stroke-width="1" fill="none" fill-rule="evenodd" transform="translate(-150.000000, -2126.000000)">
        <g id="Lenovo_logo_2015" transform="translate(150.000000, 2125.000000)" fill="#E60012" fill-rule="nonzero">
            <g id="g13605" transform="translate(65.913344, 21.510881) scale(-1, 1) rotate(90.000000) translate(-65.913344, -21.510881) translate(52.658799, 8.256336)">
                <path d="M0,15.4552966 C0,12.541818 1.35058293,9.2283696 4.05448831,7.20386496 L4.04900927,7.20523472 L4.05037903,7.20386496 L0.424625464,7.20523472 L0.424625464,0.256444463 L25.7295636,0.256444463 L25.7295636,7.20386496 L11.3306511,7.20386496 C8.73906601,7.20386496 5.98447953,9.21330224 5.98447953,12.9335692 C5.98447953,15.8086945 7.98432849,18.7838123 11.3306511,18.7838123 L25.7295636,18.7838123 L25.7295636,25.7326026 L10.0430771,25.7326026 C4.22296873,25.7326026 0,21.5685335 0,15.4552966" id="path13607"></path>
            </g>
            <g id="g13609" transform="translate(121.958689, 21.445692) scale(-1, 1) rotate(90.000000) translate(-121.958689, -21.445692) translate(109.195053, 6.718419)">
                <polygon id="path13611" points="0 20.5463934 17.2370543 14.2646761 0 7.98295873 0 0.0452020656 25.2967196 10.4567445 25.2967196 18.0712379 0 28.4827803"></polygon>
            </g>
            <g id="g13613" transform="translate(37.649820, 21.784217) scale(-1, 1) rotate(90.000000) translate(-37.649820, -21.784217) translate(23.952224, 8.086621)">
                <path d="M8.21855738,8.21855738 C6.62963628,9.40202964 5.69683002,11.2868188 5.69683002,13.5633592 C5.69683002,16.0672797 7.126859,17.9671362 9.23765849,18.9492538 L14.2742644,6.80907479 C11.6895281,6.47759297 9.66776299,7.13918684 8.21855738,8.21855738 Z M18.1191795,21.5682341 C20.2833996,18.6437974 20.799799,16.9726907 20.799799,14.3057689 C20.799799,11.9059501 20.0546498,10.02664 18.7478991,8.7020825 L11.3785927,26.4664943 C8.63222476,26.0788523 6.17898539,25.0364653 4.31337286,23.4324768 C1.60261869,21.0984065 0.168480426,17.6438729 0.168480426,13.4373413 C0.168480426,5.79682247 5.80504103,0.0356137486 13.2496842,0.0356137486 C20.8874636,0.0356137486 26.3295183,5.81052006 26.3295183,14.2030369 C26.3295183,18.9054215 24.1009195,23.7132775 21.4970066,25.9624228 L18.1191795,21.5682341 Z" id="path13615"></path>
            </g>
            <g id="g13617" transform="translate(11.682603, 17.332361) scale(-1, 1) rotate(90.000000) translate(-11.682603, -17.332361) translate(-5.439391, 5.689404)">
                <polygon id="path13619" points="27.3951913 23.2859126 27.3951913 7.49258481 0.902671552 7.49258481 0.902671552 0.449281137 33.7755313 0.449281137 33.7755313 23.2859126"></polygon>
            </g>
            <g id="g13621" transform="translate(148.239329, 21.106239) scale(-1, 1) rotate(90.000000) translate(-148.239329, -21.106239) translate(134.493875, 7.360785)">
                <path d="M6.84879781,13.6975956 C6.84879781,9.81706679 9.78967159,6.99947137 13.9729173,6.99947137 C17.9671362,6.99947137 21.0970368,9.98417745 21.0970368,13.7907393 C21.0970368,17.6726379 18.0753472,20.4888635 13.9729173,20.4888635 C9.97869841,20.4888635 6.84879781,17.5055272 6.84879781,13.6975956 M27.0513816,13.6975956 C27.0513816,6.09816957 21.3901653,0.143824754 13.9729173,0.143824754 C6.6392246,0.143824754 0.894452994,6.13926236 0.894452994,13.7907393 C0.894452994,21.3901653 6.55566927,27.3431404 13.9729173,27.3431404 C21.3052402,27.3431404 27.0513816,21.3490725 27.0513816,13.6975956" id="path13623"></path>
            </g>
            <g id="g13625" transform="translate(94.740629, 21.106239) scale(-1, 1) rotate(90.000000) translate(-94.740629, -21.106239) translate(80.995174, 7.360785)">
                <path d="M6.84879781,13.6975956 C6.84879781,9.81706679 9.78967159,7.00084112 13.9729173,7.00084112 C17.9671362,7.00084112 21.0970368,9.98417745 21.0970368,13.792109 C21.0970368,17.6726379 18.0753472,20.4888635 13.9729173,20.4888635 C9.97869841,20.4888635 6.84879781,17.5055272 6.84879781,13.6975956 M27.0513816,13.6975956 C27.0513816,6.09816957 21.3901653,0.145194514 13.9729173,0.145194514 C6.6392246,0.145194514 0.894452994,6.13926236 0.894452994,13.792109 C0.894452994,21.3901653 6.55566927,27.3445101 13.9729173,27.3445101 C21.3052402,27.3445101 27.0513816,21.3490725 27.0513816,13.6975956" id="path13627"></path>
            </g>
        </g>
    </g>
</svg>