<?xml version="1.0" encoding="UTF-8"?>
<svg width="554px" height="60px" viewBox="0 0 554 60" version="1.1" xmlns="http://www.w3.org/2000/svg" xmlns:xlink="http://www.w3.org/1999/xlink">
    <!-- Generator: Sketch 48.2 (47327) - http://www.bohemiancoding.com/sketch -->
    <title>Group 3</title>
    <desc>Created with Sketch.</desc>
    <defs></defs>
    <g id="Mockup---FINAL" stroke="none" stroke-width="1" fill="none" fill-rule="evenodd" transform="translate(-443.000000, -2597.000000)">
        <g id="Group-3" style="mix-blend-mode: color;" transform="translate(443.000000, 2597.000000)">
            <g id="AT&amp;T_logo_2016" transform="translate(0.000000, 12.000000)" fill="#607D8B" fill-rule="nonzero">
                <path d="M78.8040701,24.894147 C78.575293,24.894147 78.4177309,24.7345393 78.4177309,24.5049795 L78.4177309,13.1019309 L74.5687872,13.1019309 C74.3399246,13.1019309 74.182106,12.9430115 74.182106,12.7131936 L74.182106,11.1402614 C74.182106,10.9099272 74.3400101,10.7505776 74.5687872,10.7505776 L84.8139997,10.7505776 C85.0426058,10.7505776 85.1999969,10.9100993 85.1999969,11.1402614 L85.1999969,12.7131075 C85.1999969,12.9427534 85.0426058,13.1019309 84.8139997,13.1019309 L80.9653125,13.1019309 L80.9653125,24.5048074 C80.9653125,24.7345393 80.806981,24.894147 80.5789733,24.894147 L78.8040701,24.894147 Z M49.320551,19.2010979 L47.3001142,13.3674563 L45.261553,19.2010979 L49.320551,19.2010979 Z M53.8017094,24.4333926 C53.8900228,24.6638128 53.7491317,24.894147 53.5030852,24.894147 L51.6758607,24.894147 C51.4121173,24.894147 51.2537858,24.7707629 51.1656434,24.5221018 L50.1293071,21.5176903 L44.4538229,21.5176903 L43.4156912,24.5221018 C43.3284892,24.770849 43.1697302,24.894147 42.9066708,24.894147 L41.1851146,24.894147 C40.9563375,24.894147 40.7979205,24.6637268 40.885892,24.4333926 L45.6479777,11.1048981 C45.7361201,10.8565812 45.8941952,10.7511798 46.1572547,10.7511798 L48.5120514,10.7511798 C48.7758803,10.7511798 48.9516522,10.8566672 49.0394527,11.1048981 L53.8017094,24.4333926 Z M67.4517337,22.9844468 C68.5758705,22.9844468 69.3318779,22.4373063 69.9470796,21.4998797 L67.1007883,18.4233651 C66.0107629,19.0426087 65.3075042,19.6605617 65.3075042,20.8984467 C65.3076752,22.118521 66.2912628,22.9844468 67.4517337,22.9844468 Z M68.2423655,12.6244844 C67.3288815,12.6244844 66.8017366,13.2084508 66.8017366,13.9861837 C66.8017366,14.5871864 67.1173738,15.1176348 67.8381584,15.8957118 C69.0856604,15.1703785 69.6131472,14.7286393 69.6131472,13.9509925 C69.6131472,13.2255732 69.1564479,12.6244844 68.2423655,12.6244844 Z M76.0277113,24.3990619 C76.25589,24.6467765 76.1155973,24.894147 75.8336441,24.894147 L73.6019561,24.894147 C73.3033319,24.894147 73.1451713,24.8230764 72.951959,24.5930004 L71.6164856,23.1086053 C70.720442,24.3108689 69.4717431,25.212244 67.3986431,25.212244 C64.8331936,25.212244 62.8117308,23.6566062 62.8117308,20.9875861 C62.8117308,18.9361749 63.9018417,17.8398288 65.5538927,16.9207291 C64.7448802,15.9838187 64.3765798,14.9937344 64.3765798,14.1278947 C64.3765798,11.9351166 65.9052656,10.4326527 68.2068862,10.4326527 C70.561683,10.4326527 72.0029102,11.8298013 72.0029102,13.8978186 C72.0029102,15.6657218 70.7379679,16.6548596 69.4019815,17.3979175 L71.370439,19.5377799 L72.4773064,17.5923723 C72.61777,17.3628985 72.7760161,17.2741893 73.0567724,17.2741893 L74.7609736,17.2741893 C75.0425849,17.2741893 75.2007454,17.4691603 75.0255719,17.7695326 L73.0570289,21.1633697 L76.0277113,24.3990619 Z M58.4906138,24.894147 C58.7190489,24.894147 58.8779789,24.7345393 58.8779789,24.5049795 L58.8779789,13.1019309 L62.7258112,13.1019309 C62.9542463,13.1019309 63.1122359,12.9430115 63.1122359,12.7131936 L63.1122359,11.1402614 C63.1122359,10.9099272 62.9542463,10.7505776 62.7258112,10.7505776 L52.4805987,10.7505776 C52.2518216,10.7505776 52.094003,10.9100993 52.094003,11.1402614 L52.094003,12.7131075 C52.094003,12.9427534 52.2519071,13.1019309 52.4805987,13.1019309 L56.328431,13.1019309 L56.328431,24.5048074 C56.328431,24.7345393 56.4871045,24.894147 56.7152831,24.894147 L58.4906138,24.894147 Z" id="path5"></path>
                <path d="M6.72525236,31.1210336 C9.67312631,33.4038857 13.3732117,34.775509 17.3876276,34.775509 C21.7807285,34.775509 25.7856731,33.1438247 28.8422139,30.465382 C28.8792537,30.4326417 28.8609875,30.4109841 28.8244551,30.4326417 C27.4528849,31.3490312 23.5437532,33.3494032 17.3877968,33.3494032 C12.0380047,33.3494032 8.65715461,32.1552712 6.74791595,31.0891394 C6.71138359,31.0711195 6.69785309,31.09853 6.72525236,31.1210336 M18.5679104,32.0098435 C22.8467631,32.0098435 27.5486977,30.8429527 30.3608438,28.5331132 C31.1303912,27.9037722 31.8634063,27.0661455 32.5198894,25.9404551 C32.8978133,25.2927559 33.2674497,24.5232324 33.5685035,23.7668219 C33.5818648,23.7299362 33.5591167,23.712001 33.5313791,23.7534551 C30.916271,27.6034415 23.3435017,30.0048185 15.5242236,30.0048185 C9.99726644,30.0048185 4.05035632,28.236674 1.72209487,24.8605334 C1.69917758,24.8293159 1.67626029,24.8426828 1.69021362,24.8785533 C3.85915339,29.4904492 10.4392065,32.0098435 18.5679104,32.0098435 M13.8928676,24.3589388 C4.99368613,24.3589388 0.797538635,20.2125132 0.036363229,17.38289 C0.026976442,17.3419435 0,17.3509111 0,17.3877122 C0,18.3403106 0.0953054863,19.5696362 0.259278279,20.3856053 C0.337501505,20.7828032 0.660626849,21.4061376 1.13436361,21.9029946 C3.28926548,24.1500608 8.66172115,27.2987115 17.9659721,27.2987115 C30.6426166,27.2987115 33.5411042,23.0742846 34.1329792,21.6850645 C34.5562302,20.6915196 34.775509,18.8960493 34.775509,17.3877968 C34.775509,17.0228315 34.7663759,16.7312991 34.7525917,16.4450966 C34.7525917,16.3986511 34.7256998,16.3948441 34.7163976,16.4401052 C34.0829163,19.8394263 23.2521708,24.3589388 13.8928676,24.3589388 M1.67626029,9.92834237 C1.16632943,10.9407531 0.601092632,12.6487468 0.433060688,13.5327344 C0.359404008,13.9114895 0.390777863,14.09338 0.523545932,14.3760293 C1.59017246,16.6400155 6.98537629,20.2624274 19.570267,20.2624274 C27.2479823,20.2624274 33.2122284,18.3754196 34.1784755,14.9319373 C34.3564016,14.2980279 34.3659575,13.6287556 34.1373766,12.7269174 C33.8819883,11.7191596 33.403685,10.5439781 32.9988692,9.71878765 C32.9855079,9.69188478 32.9619141,9.69586099 32.9667343,9.72767067 C33.117092,14.2441375 20.5272119,17.154977 14.1748941,17.154977 C7.29421004,17.154977 1.55380923,14.4124074 1.55380923,10.9493823 C1.55380923,10.6166497 1.62264567,10.2838325 1.70856437,9.93747919 C1.71719007,9.90583871 1.69012906,9.9005935 1.67626029,9.92834237 M28.8703743,4.38305233 C28.943439,4.49760102 28.9798868,4.61984833 28.9798868,4.78439574 C28.9798868,6.71632616 23.069509,10.1340055 13.6609886,10.1340055 C6.74791595,10.1340055 5.4536387,7.56841948 5.4536387,5.93681981 C5.4536387,5.35358596 5.67723027,4.75681607 6.16965604,4.15074016 C6.19654792,4.11470047 6.1737152,4.10082603 6.1426796,4.1276443 C5.24459241,4.8890462 4.41940081,5.74579253 3.69551886,6.67064204 C3.34964535,7.10802513 3.13493317,7.4954941 3.13493317,7.72763708 C3.13493317,11.1088537 11.6097642,13.5603986 19.5339884,13.5603986 C27.977361,13.5603986 31.7456063,10.8029394 31.7456063,8.37965091 C31.7456063,7.51359855 31.4086122,7.00802768 30.54655,6.02784964 C29.9869791,5.39021785 29.4576827,4.87102635 28.8974353,4.35995648 C28.8703743,4.33762202 28.8515161,4.35581107 28.8703743,4.38305233 M26.2819043,2.45154492 C23.6760984,0.888979018 20.6500858,0 17.3877968,0 C14.1027596,0 10.9855852,0.920027295 8.37039249,2.5239627 C7.58596153,3.0069453 7.14444428,3.39399127 7.14444428,3.89152511 C7.14444428,5.35815437 10.5706215,6.9351023 16.6491158,6.9351023 C22.6645241,6.9351023 27.3301801,5.20781979 27.3301801,3.54517184 C27.3301801,3.14831225 26.9834609,2.87065436 26.2819043,2.45154492" id="path9"></path>
            </g>
            <g id="IBM_logo" transform="translate(117.200012, 13.000000)" fill="#607D8B" fill-rule="nonzero">
                <path d="M0,0 L0,2.34368723 L16.5840465,2.34368723 L16.5840465,0 L0,0 Z M18.9337031,0 L18.9337031,2.34368723 L42.5667168,2.34368723 C42.5667168,2.34368723 40.1527351,0 36.9554987,0 L18.9337031,0 Z M47.2027954,0 L47.2027954,2.34368723 L61.5004199,2.34368723 L60.6517478,0 L47.2027954,0 Z M71.7510445,0 L70.9023725,2.34368723 L85.0701999,2.34368723 L85.0701999,0 L71.7510445,0 Z M0,4.55790601 L0,6.90159255 L16.5840465,6.90159255 L16.5840465,4.55790601 L0,4.55790601 Z M18.9337031,4.56122581 L18.9337031,6.90159255 L45.3090926,6.90159255 C45.3090926,6.90159255 45.0010409,5.09779042 44.4637484,4.56122581 L18.9337031,4.56122581 Z M47.2027954,4.56122581 L47.2027954,6.90159255 L63.0679669,6.90159255 L62.2825286,4.56122581 L47.2027954,4.56122581 Z M70.0537004,4.56122581 L69.2682629,6.90159255 L85.0701999,6.90159255 L85.0701999,4.56122581 L70.0537004,4.56122581 Z M4.76587449,9.11581201 L4.76587449,11.4628178 L11.9479679,11.4628178 L11.9479679,9.11581201 L4.76587449,9.11581201 Z M23.6995779,9.11581201 L23.6995779,11.4628178 L30.8816701,11.4628178 L30.8816701,9.11581201 L23.6995779,9.11581201 Z M37.8674053,9.11581201 L37.8674053,11.4628178 L45.0494984,11.4628178 C45.0494992,11.4628178 45.5054513,10.2233603 45.5054513,9.11581201 L37.8674053,9.11581201 Z M51.9686702,9.11581201 L51.9686702,11.4628178 L64.7020764,11.4628178 L63.8534044,9.11581201 L51.9686702,9.11581201 Z M68.4894821,9.11581201 L67.6374822,11.4628178 L80.4341221,11.4628178 L80.4341221,9.11581201 L68.4894821,9.11581201 Z M4.76587449,13.6770383 L4.76587449,16.0207238 L11.9479679,16.0207238 L11.9479679,13.6770383 L4.76587449,13.6770383 Z M23.6995779,13.6770383 L23.6995779,16.0207238 L42.0442023,16.0207238 C42.0442031,16.0207229 43.5787599,14.8181545 44.0677013,13.6770383 L23.6995779,13.6770383 Z M51.9686702,13.6770383 L51.9686702,16.0207238 L59.1507633,16.0207238 L59.1507633,14.716094 L59.6067162,16.0207238 L72.7627945,16.0207238 L73.2520291,14.716094 L73.2520291,16.0207238 L80.4341221,16.0207238 L80.4341221,13.6770383 L66.951888,13.6770383 L66.236341,15.6621997 L65.5174668,13.6770383 L51.9686702,13.6770383 Z M4.76587449,18.2349443 L4.76587449,20.5786298 L11.9479679,20.5786298 L11.9479679,18.2349443 L4.76587449,18.2349443 Z M23.6995779,18.2349443 L23.6995779,20.5786298 L44.0677013,20.5786298 C43.5786542,19.4412319 42.0442023,18.2349443 42.0442023,18.2349443 L23.6995779,18.2349443 Z M51.9686702,18.2349443 L51.9686702,20.5786298 L59.1507633,20.5786298 L59.1507633,18.2349443 L51.9686702,18.2349443 Z M60.4553882,18.2349443 L61.3240295,20.5786298 L71.1885916,20.5786298 L72.0139666,18.2349443 L60.4553882,18.2349443 Z M73.2520291,18.2349443 L73.2520291,20.5786298 L80.4341221,20.5786298 L80.4341221,18.2349443 L73.2520291,18.2349443 Z M4.76587449,22.7928503 L4.76587449,25.1365358 L11.9479679,25.1365358 L11.9479679,22.7928503 L4.76587449,22.7928503 Z M23.6995779,22.7928503 L23.6995779,25.1365358 L30.8816701,25.1365358 L30.8816701,22.7928503 L23.6995779,22.7928503 Z M37.8674053,22.7928503 L37.8674053,25.1365358 L45.5054513,25.1365358 C45.505453,24.0304776 45.0494984,22.7928503 45.0494984,22.7928503 L37.8674053,22.7928503 Z M51.9686702,22.7928503 L51.9686702,25.1365358 L59.1507633,25.1365358 L59.1507633,22.7928503 L51.9686702,22.7928503 Z M62.086169,22.7928503 L62.9281852,25.1365358 L69.5411687,25.1365358 L70.3898408,22.7928503 L62.086169,22.7928503 Z M73.2520291,22.7928503 L73.2520291,25.1365358 L80.4341221,25.1365358 L80.4341221,22.7928503 L73.2520291,22.7928503 Z M0.129796231,27.3507563 L0.129796231,29.697762 L16.7138427,29.697762 L16.7138427,27.3507563 L0.129796231,27.3507563 Z M18.9337031,27.3507563 L18.9337031,29.697762 L44.4637484,29.697762 C45.0010409,29.1603479 45.3090926,27.3507563 45.3090926,27.3507563 L18.9337031,27.3507563 Z M47.3325916,27.3507563 L47.3325916,29.697762 L59.1507633,29.697762 L59.1507633,27.3507563 L47.3325916,27.3507563 Z M63.7202785,27.3507563 L64.585591,29.697762 L67.9503255,29.697762 L68.7623879,27.3507563 L63.7202785,27.3507563 Z M73.2520291,27.3507563 L73.2520291,29.697762 L85.1999969,29.697762 L85.1999969,27.3507563 L73.2520291,27.3507563 Z M0.129796231,31.9119817 L0.129796231,34.2556689 L16.7138427,34.2556689 L16.7138427,31.9119817 L0.129796231,31.9119817 Z M18.9337031,31.9119817 L18.9337031,34.2523495 L36.9554987,34.2523495 C40.1527342,34.2523478 42.5667168,31.9119817 42.5667168,31.9119817 L18.9337031,31.9119817 Z M47.3325916,31.9119817 L47.3325916,34.2556689 L59.1507633,34.2556689 L59.1507633,31.9119817 L47.3325916,31.9119817 Z M65.3610447,31.9119817 L66.1930764,34.2490284 L66.3361851,34.2523495 L67.1815293,31.9119817 L65.3610447,31.9119817 Z M73.2520291,31.9119817 L73.2520291,34.2556689 L85.1999969,34.2556689 L85.1999969,31.9119817 L73.2520291,31.9119817 Z" id="Shape"></path>
            </g>
            <g id="Intel-logo" transform="translate(468.400024, 1.000000)" fill="#607D8B" fill-rule="nonzero">
                <path d="M25.1021315,23.8903593 L25.1021315,37.6828565 L20.7224429,37.6828766 L20.7224429,20.3463303 L29.7643496,20.35533 C33.6048138,20.35533 34.9130797,23.0702898 34.9130797,25.5363682 L34.9130797,37.6828766 L30.5412964,37.6828766 L30.5412964,25.5590909 C30.5412964,24.5260527 30.0078701,23.8903794 28.7212129,23.8903794 L25.1021315,23.8903794 L25.1021315,23.8903593 Z M54.8833868,23.6832232 C53.3864172,23.6832232 52.2278488,24.4547 51.7439671,25.5020031 C51.4572234,26.1308091 51.3586573,26.6127167 51.3249233,27.3826057 L58.0628648,27.3826057 C57.9764211,25.5020031 57.1256792,23.6832232 54.8833868,23.6832232 Z M51.3249233,30.370752 C51.3249233,32.6164841 52.7175258,34.269343 55.2038646,34.269343 C57.1383277,34.269343 58.099761,33.7319527 59.2182711,32.6164841 L61.9233595,35.2056805 C60.1913037,36.9198376 58.3738563,37.9608008 55.1717116,37.9608008 C50.9791428,37.9608008 46.9668434,35.6690957 46.9668434,28.990022 C46.9668434,23.2832185 50.4699642,20.0525363 55.0731427,20.0525363 C59.7390489,20.0525363 62.4346481,23.8348765 62.4346481,28.7892286 L62.4346481,30.370752 L51.3249233,30.370752 Z M43.2697526,37.6611913 C39.7017998,37.6611913 38.1879617,35.1713355 38.1879617,32.7121273 L38.1879617,15.6228948 L42.5608,15.6228948 L42.5608,20.3463303 L45.8572936,20.3463303 L45.8572936,23.8903593 L42.5608,23.8903593 L42.5608,32.4373531 C42.5608,33.4444986 43.0351924,34.0035541 44.0783263,34.0035541 L45.8572936,34.0035541 L45.8572936,37.6611913 L43.2697526,37.6611913 Z M16.8255781,17.9505298 L12.4158465,17.9505298 L12.4158465,13.7512746 L16.8255781,13.7512746 L16.8255781,17.9505298 Z M16.8367056,37.8651576 C13.5343795,37.5470558 12.4111262,35.5391075 12.4111262,33.22204 L12.4159008,20.3463303 L16.8367056,20.3463303 L16.8367056,37.8651576 Z M69.3945243,37.4947429 C66.0990828,37.1761138 64.9811016,35.1713355 64.9811016,32.8574379 L64.9811016,13.1536437 L69.3945243,13.1536437 L69.3945243,37.4947429 Z M84.8233228,16.0012343 C80.823672,-3.54720927 42.9709064,-4.78473824 18.5724153,10.1052596 L18.5724153,11.7491361 C42.9461327,-0.80794165 77.5139981,-0.733966495 80.6634331,17.2709959 C81.7171083,23.2245657 78.3705382,29.431772 72.3937299,32.9995786 L72.3937299,37.6675341 C79.5876173,35.0291949 86.9654623,26.473746 84.82332,16.0012343 L84.8233228,16.0012343 Z M40.4724423,50.2034712 C23.6336467,51.7638597 6.08642745,49.313634 3.63118659,36.1229982 C2.42939491,29.620413 5.38432803,22.7273357 9.30438554,18.4456474 L9.30438554,16.1560576 C2.24754438,22.3595637 -1.5823784,30.2132861 0.622488844,39.4931813 C3.43668758,51.3929177 18.496513,58.1364568 41.4828971,55.8970646 C50.5775134,55.0072274 62.4810536,52.0756215 70.756552,47.5223318 L70.756552,41.0535699 C63.247459,45.5360487 50.82156,49.2428259 40.4724423,50.2034712 Z" id="path4423"></path>
                <path d="M74.3848407,14.4266187 C74.3848407,14.2175634 74.2630066,14.1511413 73.9843838,14.1511413 L73.7155285,14.1511413 L73.7155285,14.7427755 C73.754596,14.7427755 73.9499421,14.7499813 73.9843838,14.7499813 C74.2630066,14.7499813 74.3848407,14.6567832 74.3848407,14.4611145 L74.3848407,14.4266383 L74.3848407,14.4266187 Z M74.804317,15.8936091 L74.4855976,15.8936091 C74.4568107,15.8936091 74.4316208,15.8755666 74.4192824,15.8513881 L73.9843838,15.113001 C73.97666,15.0980866 73.9391456,15.0800441 73.9242391,15.0800441 L73.728893,15.0800441 L73.728893,15.8122532 C73.728893,15.8513881 73.7021528,15.8936091 73.6507552,15.8936091 L73.3623647,15.8936091 C73.3263811,15.8936091 73.2903975,15.8513881 73.2903975,15.8122532 L73.2903975,13.9601061 C73.2903975,13.8530047 73.3320359,13.8082086 73.4225122,13.7943052 C73.5242952,13.780927 73.8008631,13.7716544 73.9499421,13.7716544 C74.4794298,13.7716544 74.7996911,13.9281883 74.7996911,14.4266243 L74.7996911,14.4611033 C74.7996911,14.7695375 74.6464993,14.9322494 74.4090017,15.0120609 L74.8598385,15.7756795 C74.8627105,15.7911245 74.8731947,15.8122588 74.8731947,15.8302594 C74.8731947,15.8601244 74.855182,15.8935952 74.8043086,15.8935952 L74.804317,15.8936091 Z M74.0476068,13.4374552 C73.2631414,13.4374552 72.6287867,14.0862471 72.6287867,14.8673719 C72.6287867,15.6495246 73.2631414,16.2880188 74.0476068,16.2880188 C74.8279566,16.2880188 75.4684819,15.6495246 75.4684819,14.8673719 C75.4684819,14.0862471 74.8279566,13.4374552 74.0476068,13.4374552 Z M74.0476068,16.5825497 C73.09453,16.5825497 72.3342256,15.8122392 72.3342256,14.8673719 C72.3342256,13.9240491 73.09453,13.1516774 74.0476068,13.1516774 C74.9904029,13.1516774 75.765098,13.9240491 75.765098,14.8673719 C75.765098,15.8122392 74.9904029,16.5825497 74.0476068,16.5825497 Z" id="path4425"></path>
            </g>
            <g id="LinkedIn_Logo" transform="translate(351.200012, 18.000000)">
                <g id="g3019" transform="translate(42.299893, 11.967244) scale(-1, 1) rotate(-180.000000) translate(-42.299893, -11.967244) translate(0.183986, 0.349063)">
                    <path d="M61.8628836,20.7969715 C61.8628836,21.6759343 62.5934917,22.3889037 63.4947848,22.3889037 L82.3140901,22.3889037 C83.2153536,22.3889037 83.9459914,21.6759343 83.9459914,20.7969715 L83.9459914,1.75762857 C83.9459914,0.878368863 83.2153536,0.165696358 82.3140901,0.165696358 L63.4947848,0.165696358 C62.5934917,0.165696358 61.8628836,0.878368863 61.8628836,1.75762857 L61.8628836,20.7969715 Z" id="path14" fill="#607D8B" fill-rule="nonzero"></path>
                    <polygon id="path16" fill="#607D8B" points="0.0450171466 3.77389786 9.26094165 3.77389786 9.26094165 6.7994896 3.3801463 6.7994896 3.3801463 18.3430025 0.0450171466 18.3430025"></polygon>
                    <path d="M13.9268382,3.77389786 L13.9268382,13.8086237 L10.5914121,13.8086237 L10.5914121,3.77389786 L13.9268382,3.77389786 Z M12.2591252,15.1787366 C13.4222661,15.1787366 14.1462226,15.9493137 14.1462226,16.9129063 C14.1245455,17.8972852 13.4222661,18.6461853 12.2813071,18.6461853 C11.1401997,18.6461853 10.3942097,17.8972852 10.3942097,16.9129063 C10.3942097,15.9493137 11.1180177,15.1787366 12.237359,15.1787366 L12.2590361,15.1787366 L12.2591252,15.1787366 Z" id="path18" fill="#607D8B"></path>
                    <path d="M15.4755053,3.77389786 L18.8109611,3.77389786 L18.8109611,9.37787933 C18.8109611,9.67779568 18.8326382,9.97741508 18.9208611,10.1918107 C19.1618335,10.7907526 19.710621,11.4113715 20.6320769,11.4113715 C21.8391363,11.4113715 22.3219719,10.4908362 22.3219719,9.14269741 L22.3219719,3.77389786 L25.657101,3.77389786 L25.657101,9.52783751 C25.657101,12.6101461 24.0114214,14.0443995 21.8169543,14.0443995 C20.0177235,14.0443995 19.2276666,13.0386404 18.7887495,12.353584 L18.8110205,12.353584 L18.8110205,13.8086237 L15.4755647,13.8086237 C15.5193643,12.8670051 15.4755053,3.77389786 15.4755053,3.77389786 Z" id="path20" fill="#607D8B"></path>
                    <path d="M30.3624322,18.3430025 L27.0268576,18.3430025 L27.0268576,3.77389786 L30.3624322,3.77389786 L30.3624322,7.02724785 L31.1960215,8.07665812 L33.8073426,3.77389786 L37.9105249,3.77389786 L33.5221548,10.0029525 L37.3621531,14.2409783 L33.3466889,14.2409783 C33.3466889,14.2409783 30.60385,10.4492637 30.3624322,9.99968609 L30.3624322,18.3430025 Z" id="path22" fill="#607D8B"></path>
                    <path d="M46.8303636,7.95966105 C46.8741633,8.21741094 46.9401449,8.71182749 46.9401449,9.27068151 C46.9401449,11.8648094 45.6233043,14.4981343 42.1565089,14.4981343 C38.4479987,14.4981343 36.7365157,11.56519 36.7365157,8.9051399 C36.7365157,5.6149685 38.8210828,3.56009611 42.4636113,3.56009611 C43.91194,3.56009611 45.2502499,3.77389786 46.3475577,4.22347544 L45.9085217,6.42622737 C45.0089806,6.12779576 44.0873762,5.97872843 42.9464469,5.97872843 C41.3884855,5.97872843 40.0281421,6.61805506 39.9182421,7.98104122 L46.8303636,7.96025494 L46.8303636,7.95966105 Z M39.8965056,10.2161604 C39.9842237,11.0725552 40.5547774,12.3357672 41.9810726,12.3357672 C43.494789,12.3357672 43.8461069,10.9867375 43.8461069,10.2161604 L39.8965056,10.2161604 Z" id="path24" fill="#607D8B"></path>
                    <path d="M55.1730268,18.3430025 L55.1730268,13.2996567 L55.1292271,13.2996567 C54.6463915,14.0054995 53.6368018,14.4764572 52.2986701,14.4764572 C49.7311189,14.4764572 47.4711156,12.4215848 47.4928521,8.91137579 C47.4928521,5.65743191 49.5336492,3.53841899 52.0789888,3.53841899 C53.4613656,3.53841899 54.7779092,4.13795474 55.4361811,5.29396893 L55.5021627,5.29396893 L55.6337992,3.77389786 L58.5963194,3.77389786 C58.5523713,4.48033449 58.5081559,5.7004892 58.5081559,6.8989668 L58.5081559,18.3430025 L55.1730268,18.3430025 Z M55.1730268,8.41874092 C55.1730268,8.16217882 55.1510527,7.90502282 55.1070452,7.69122107 C54.9098427,6.77068575 54.1196374,6.1286866 53.1544116,6.1286866 C51.771916,6.1286866 50.8722264,7.2416435 50.8722264,8.99689649 C50.8722264,10.6449517 51.6403982,11.9720073 53.1761778,11.9720073 C54.2073555,11.9720073 54.9316089,11.2658676 55.1292271,10.3883896 C55.1730268,10.1953741 55.1730268,9.98127539 55.1730268,9.78885381 L55.1730268,8.41874092 Z" id="path26" fill="#607D8B"></path>
                    <path d="M68.556957,3.78577574 L68.556957,13.8207985 L65.2215012,13.8207985 L65.2215012,3.78577574 L68.556957,3.78577574 Z M66.8892143,15.1909114 C68.0523552,15.1909114 68.7763117,15.9614886 68.7763117,16.9244873 C68.7546346,17.9091631 68.0523552,18.6583601 66.9112774,18.6583601 C65.7703184,18.6583601 65.0243285,17.9091631 65.0243285,16.9244873 C65.0243285,15.9614886 65.7481365,15.1909114 66.8674778,15.1909114 L66.8891549,15.1909114 L66.8892143,15.1909114 Z" id="path28" fill="#FFFFFF"></path>
                    <path d="M70.4025709,3.78577574 L73.7379971,3.78577574 L73.7379971,9.38975721 C73.7379971,9.68967355 73.7596742,9.98929295 73.8477486,10.2036886 C74.0888695,10.8029274 74.6376867,11.4235464 75.5591129,11.4235464 C76.7660534,11.4235464 77.2488594,10.503308 77.2488594,9.15427833 L77.2488594,3.78577574 L80.5840182,3.78577574 L80.5840182,9.53971538 C80.5840182,12.622024 78.9384871,14.0562774 76.74402,14.0562774 C74.9446407,14.0562774 74.1547026,13.0505183 73.7158151,12.3654619 L73.7380861,12.3654619 L73.7380861,13.8207985 L70.40266,13.8207985 C70.44643,12.87918 70.4025709,3.78577574 70.4025709,3.78577574 Z" id="path30" fill="#FFFFFF"></path>
                </g>
            </g>
            <g id="tdx-logo-salesforce" transform="translate(234.000000, 0.000000)" fill-rule="nonzero">
                <path d="M35.4563064,6.52107669 C38.2089217,3.67015371 42.0429216,1.86784609 46.2701522,1.86784609 C51.9064597,1.86784609 56.7890749,5.01369213 59.4106133,9.66692273 C61.6716901,8.65107661 64.1949208,8.09399971 66.8492284,8.09399971 C77.0076895,8.09399971 85.1999969,16.3846148 85.1999969,26.6086144 C85.1999969,36.8326141 76.9749203,45.1232292 66.8492284,45.1232292 C65.6039977,45.1232292 64.3915362,44.9921522 63.2446131,44.7627676 C60.950767,48.8589213 56.5596903,51.6443058 51.5132289,51.6443058 C49.4159982,51.6443058 47.4170752,51.1527674 45.6475368,50.3007674 C43.3209215,55.7732288 37.8812294,59.6399979 31.5567681,59.6399979 C24.970153,59.6399979 19.3338455,55.4783057 17.1710763,49.6126136 C16.2207686,49.809229 15.2376918,49.9075367 14.2546149,49.9075367 C6.38999977,49.9075367 0.0327692296,43.4847677 0.0327692296,35.5218449 C0.0327692296,30.2132297 2.8836922,25.5599991 7.14369205,23.0695376 C6.25892285,21.0706146 5.76738441,18.842307 5.76738441,16.4829225 C5.73461518,7.40584589 13.1732303,0 22.2830761,0 C27.6572298,0 32.4415373,2.55599991 35.4563064,6.52107669" id="Fill-1" fill="#607D8B"></path>
                <path d="M12.3539996,30.9341527 L12.7144611,29.9838451 C12.7799995,29.8199989 12.8783072,29.8855374 12.9438457,29.9183066 C13.0421534,29.9838451 13.1076918,30.0166143 13.2387688,30.114922 C14.2546149,30.7703066 15.2049225,30.7703066 15.4998456,30.7703066 C16.2535379,30.7703066 16.7450763,30.3770758 16.7450763,29.8199989 L16.7450763,29.7872297 C16.7450763,29.1973836 16.0241533,28.967999 15.1721533,28.7058451 L14.9755379,28.6403067 C13.8286149,28.3126144 12.5833842,27.8210759 12.5833842,26.3792298 L12.5833842,26.3464606 C12.5833842,24.970153 13.697538,23.9870761 15.3032302,23.9870761 L15.4670764,23.9870761 C16.417384,23.9870761 17.3021532,24.2492299 17.9575378,24.6752299 C18.0230763,24.7079991 18.0886147,24.7735376 18.0558455,24.8718453 C18.0230763,24.970153 17.7281532,25.7238452 17.695384,25.8221529 C17.6298455,25.9859991 17.4659994,25.8876914 17.4659994,25.8876914 C16.8761532,25.5599991 15.991384,25.3306145 15.2376918,25.3306145 C14.5495379,25.3306145 14.123538,25.691076 14.123538,26.1826144 L14.123538,26.2153837 C14.123538,26.7724606 14.8772302,27.0346144 15.7292302,27.2967683 L15.8930764,27.3295375 C17.0399994,27.689999 18.2524609,28.1815375 18.2524609,29.5906143 L18.2524609,29.6233836 C18.2524609,31.1307681 17.1710763,32.0483065 15.4343071,32.0483065 C14.5823072,32.0483065 13.7630764,31.9172296 12.8783072,31.4584604 C12.7144611,31.3601527 12.5506149,31.2946143 12.3867688,31.1635373 C12.3539996,31.0979989 12.2884611,31.0652297 12.3539996,30.9341527 Z M37.9139986,30.9341527 L38.2744602,29.9838451 C38.3399986,29.8199989 38.4710755,29.8855374 38.5038448,29.9183066 C38.6021525,29.9838451 38.6676909,30.0166143 38.7987678,30.114922 C39.814614,30.7703066 40.7649216,30.7703066 41.0598447,30.7703066 C41.813537,30.7703066 42.3050754,30.3770758 42.3050754,29.8199989 L42.3050754,29.7872297 C42.3050754,29.1973836 41.5841524,28.967999 40.7321524,28.7058451 L40.535537,28.6403067 C39.388614,28.3126144 38.1433832,27.8210759 38.1433832,26.3792298 L38.1433832,26.3464606 C38.1433832,24.970153 39.2575371,23.9870761 40.8632293,23.9870761 L41.0270755,23.9870761 C41.9773831,23.9870761 42.8621523,24.2492299 43.5175369,24.6752299 C43.5830754,24.7079991 43.6486138,24.7735376 43.6158446,24.8718453 C43.5830754,24.970153 43.2881523,25.7238452 43.2553831,25.8221529 C43.1898446,25.9859991 43.0259985,25.8876914 43.0259985,25.8876914 C42.4361523,25.5599991 41.5513831,25.3306145 40.7976908,25.3306145 C40.109537,25.3306145 39.683537,25.691076 39.683537,26.1826144 L39.683537,26.2153837 C39.683537,26.7724606 40.4372293,27.0346144 41.2892293,27.2967683 L41.4530754,27.3295375 C42.5999985,27.689999 43.81246,28.1815375 43.81246,29.5906143 L43.81246,29.6233836 C43.81246,31.1307681 42.7310754,32.0483065 40.9943062,32.0483065 C40.1423063,32.0483065 39.3230755,31.9172296 38.4383063,31.4584604 C38.2744602,31.3601527 38.110614,31.2946143 37.9467679,31.1635373 C37.9467679,31.0979989 37.8812294,31.0652297 37.9139986,30.9341527 Z M56.8546133,26.4447683 C56.9856903,26.9363067 57.083998,27.4606144 57.083998,28.0176913 C57.083998,28.5747682 57.0184595,29.0990759 56.8546133,29.5906143 C56.7235364,30.0821528 56.4941518,30.5081528 56.1992288,30.8686143 C55.9043057,31.2290758 55.5110749,31.5239989 55.0850749,31.7206142 C54.6263057,31.9172296 54.1019981,32.0155373 53.5121519,32.0155373 C52.9223058,32.0155373 52.3979981,31.9172296 51.9392289,31.7206142 C51.4804597,31.5239989 51.1199982,31.2290758 50.8250751,30.8686143 C50.530152,30.5081528 50.3007674,30.0821528 50.1696905,29.5906143 C50.0386136,29.0990759 49.9403059,28.5747682 49.9403059,28.0176913 C49.9403059,27.4606144 50.0058444,26.9363067 50.1696905,26.4447683 C50.3007674,25.9532298 50.530152,25.5272299 50.8250751,25.1667683 C51.1199982,24.8063068 51.5132289,24.5113837 51.9392289,24.3147684 C52.3979981,24.118153 52.9223058,23.9870761 53.5121519,23.9870761 C54.1019981,23.9870761 54.6263057,24.0853838 55.0850749,24.3147684 C55.5438442,24.5113837 55.9043057,24.8063068 56.1992288,25.1667683 C56.4941518,25.5272299 56.7235364,25.9532298 56.8546133,26.4447683 Z M55.379998,27.9849221 C55.379998,27.1329221 55.2161519,26.4775375 54.9212288,26.0187683 C54.6263057,25.5599991 54.1347673,25.3306145 53.5121519,25.3306145 C52.8567673,25.3306145 52.3979981,25.5599991 52.1030751,26.0187683 C51.808152,26.4775375 51.6443058,27.1329221 51.6443058,27.9849221 C51.6443058,28.836922 51.808152,29.4923066 52.1030751,29.9838451 C52.3979981,30.4426143 52.8567673,30.6719989 53.5121519,30.6719989 C54.1675365,30.6719989 54.6263057,30.4426143 54.9212288,29.9838451 C55.2489211,29.5250759 55.379998,28.836922 55.379998,27.9849221 Z M68.8481514,30.4426143 L69.2086129,31.4256912 C69.2413821,31.5567681 69.1430744,31.5895373 69.1430744,31.5895373 C68.5859975,31.8189219 67.8323053,31.9499989 67.078613,31.9499989 C65.800613,31.9499989 64.8503054,31.5895373 64.1949208,30.8686143 C63.5395362,30.1476912 63.2118439,29.1646143 63.2118439,27.9521528 C63.2118439,27.3950759 63.2773823,26.8707683 63.4412285,26.3792298 C63.6050746,25.8876914 63.8344593,25.4616914 64.1621515,25.1012299 C64.4898438,24.7407683 64.8830746,24.4458453 65.3418438,24.2492299 C65.800613,24.0526145 66.3576899,23.9215376 66.9803053,23.9215376 C67.4063053,23.9215376 67.7667668,23.9543068 68.0616899,23.9870761 C68.3893822,24.0526145 68.8481514,24.1509222 69.0447668,24.2492299 C69.077536,24.2492299 69.1758437,24.3147684 69.1430744,24.413076 C69.0119975,24.8063068 68.9136898,25.0684606 68.7826129,25.3961529 C68.7170745,25.5599991 68.6187668,25.4944606 68.6187668,25.4944606 C68.1272283,25.3306145 67.6684591,25.265076 67.078613,25.265076 C66.3576899,25.265076 65.800613,25.4944606 65.4729207,25.9859991 C65.1124592,26.4447683 64.9158438,27.0673836 64.9158438,27.9193836 C64.9158438,28.836922 65.1452284,29.4923066 65.5384592,29.9183066 C65.9316899,30.3443066 66.4887668,30.540922 67.2096899,30.540922 C67.504613,30.540922 67.7667668,30.5081528 67.9961514,30.4753835 C68.225536,30.4426143 68.4549206,30.3770758 68.6843052,30.2787681 C68.651536,30.3443066 68.7826129,30.3115374 68.8481514,30.4426143 Z M76.2867665,26.1498452 C76.6144588,27.263999 76.4506126,28.2143067 76.4178434,28.2798451 C76.4178434,28.4109221 76.2867665,28.4109221 76.2867665,28.4109221 L71.3386128,28.4109221 C71.3713821,29.1646143 71.5352282,29.688922 71.928459,30.0493835 C72.2889205,30.4098451 72.8459974,30.6392297 73.6324589,30.6392297 C74.8121512,30.6392297 75.3036896,30.4098451 75.6641511,30.2787681 C75.6641511,30.2787681 75.7952281,30.2459989 75.8607665,30.3770758 L76.1884588,31.2946143 C76.2539973,31.4584604 76.1884588,31.4912296 76.1556896,31.5239989 C75.8607665,31.687845 75.1070742,32.0155373 73.6652281,32.0155373 C72.9770743,32.0155373 72.3544589,31.9172296 71.8629205,31.7206142 C71.3713821,31.5239989 70.9453821,31.261845 70.6176898,30.9013835 C70.2899975,30.540922 70.0606129,30.114922 69.8967667,29.6561528 C69.7329206,29.1646143 69.6673821,28.6403067 69.6673821,28.0832298 C69.6673821,27.5261529 69.7329206,27.0018452 69.8967667,26.5103067 C70.0278436,26.0187683 70.2572283,25.5927683 70.5521513,25.2323068 C70.8470744,24.8718453 71.2403051,24.5769222 71.6990744,24.3803068 C72.1578436,24.1509222 72.7149205,24.0526145 73.3375358,24.0526145 C73.8618435,24.0526145 74.353382,24.1509222 74.7466127,24.3475376 C75.0415358,24.4786145 75.3692281,24.7079991 75.6969204,25.0684606 C75.8607665,25.1995376 76.1556896,25.691076 76.2867665,26.1498452 Z M71.3713821,27.1984606 L74.8776896,27.1984606 C74.8449204,26.7396913 74.7466127,26.3464606 74.5499973,26.0187683 C74.2550743,25.5599991 73.8290743,25.2978452 73.1736897,25.2978452 C72.5183051,25.2978452 72.0595359,25.5599991 71.7646128,26.0187683 C71.5679974,26.3136914 71.4696897,26.7069221 71.3713821,27.1984606 Z M36.7343064,26.1498452 C37.0619987,27.263999 36.8981525,28.2143067 36.8981525,28.2798451 C36.8981525,28.4109221 36.7670756,28.4109221 36.7670756,28.4109221 L31.8189219,28.4109221 C31.8516912,29.1646143 32.0155373,29.688922 32.4087681,30.0493835 C32.7692296,30.4098451 33.3263065,30.6392297 34.112768,30.6392297 C35.2924603,30.6392297 35.7839987,30.4098451 36.1444602,30.2787681 C36.1444602,30.2787681 36.2755372,30.2459989 36.3410756,30.3770758 L36.6687679,31.2946143 C36.7343064,31.4584604 36.6687679,31.4912296 36.6359987,31.5239989 C36.3410756,31.687845 35.5873833,32.0155373 34.1455372,32.0155373 C33.4573834,32.0155373 32.8347681,31.9172296 32.3432296,31.7206142 C31.8516912,31.5239989 31.4256912,31.261845 31.0979989,30.9013835 C30.7703066,30.540922 30.540922,30.114922 30.3770758,29.6561528 C30.2132297,29.1646143 30.1476912,28.6403067 30.1476912,28.0832298 C30.1476912,27.5261529 30.2132297,27.0018452 30.3770758,26.5103067 C30.5081528,26.0187683 30.7375374,25.5927683 31.0324604,25.2323068 C31.3273835,24.8718453 31.7206142,24.5769222 32.1793835,24.3803068 C32.6381527,24.1509222 33.1952296,24.0526145 33.8178449,24.0526145 C34.3421526,24.0526145 34.8336911,24.1509222 35.2269218,24.3475376 C35.5218449,24.4786145 35.8495372,24.7079991 36.1772295,25.0684606 C36.3083064,25.1995376 36.6359987,25.691076 36.7343064,26.1498452 Z M31.8189219,27.1984606 L35.3579987,27.1984606 C35.3252295,26.7396913 35.2269218,26.3464606 35.0303064,26.0187683 C34.7353834,25.5599991 34.3093834,25.2978452 33.6539988,25.2978452 C32.9986142,25.2978452 32.539845,25.5599991 32.2449219,26.0187683 C32.0155373,26.3136914 31.9172296,26.7069221 31.8189219,27.1984606 Z M23.1350761,26.9363067 C23.1350761,26.9363067 23.5283068,26.969076 23.9543068,27.0346144 L23.9543068,26.837999 C23.9543068,26.1826144 23.8232299,25.8549222 23.5610761,25.6583068 C23.2989222,25.4616914 22.8729223,25.3306145 22.3486146,25.3306145 C22.3486146,25.3306145 21.1361531,25.3306145 20.1858454,25.8221529 C20.1530762,25.8549222 20.120307,25.8549222 20.120307,25.8549222 C20.120307,25.8549222 19.9892301,25.8876914 19.9564608,25.7893837 L19.5959993,24.839076 C19.5304608,24.7079991 19.6287685,24.6424607 19.6287685,24.6424607 C20.0875377,24.2819991 21.1361531,24.0853838 21.1361531,24.0853838 C21.4966146,24.0198453 22.0864607,23.9543068 22.4469223,23.9543068 C23.4299992,23.9543068 24.1836914,24.1836914 24.7079991,24.6424607 C25.2323068,25.1012299 25.4944606,25.8221529 25.4944606,26.837999 L25.4944606,31.3601527 C25.4944606,31.3601527 25.4944606,31.4912296 25.3961529,31.5239989 C25.3961529,31.5239989 25.1995376,31.5895373 25.0356914,31.6223066 C24.8718453,31.6550758 24.2819991,31.7861527 23.7904607,31.8516912 C23.2989222,31.9499989 22.8073838,31.9827681 22.2830761,31.9827681 C21.7915377,31.9827681 21.3655377,31.9499989 20.9723069,31.8516912 C20.5790762,31.7533835 20.2513839,31.6223066 19.9564608,31.4256912 C19.694307,31.2290758 19.4649224,30.966922 19.3010762,30.6392297 C19.1372301,30.3443066 19.0716916,29.9510759 19.0716916,29.5250759 C19.0716916,29.0990759 19.1699993,28.7058451 19.3338455,28.3781528 C19.4976916,28.0504605 19.7598454,27.7883067 20.0547685,27.5589221 C20.3496916,27.3295375 20.7101531,27.1984606 21.0706146,27.0673836 C21.4638454,26.969076 21.8570761,26.9035375 22.2830761,26.9035375 C22.6763069,26.9363067 22.9384607,26.9363067 23.1350761,26.9363067 Z M21.1689223,30.4098451 C21.1689223,30.4098451 21.6276915,30.7703066 22.6107684,30.7047681 C23.3316915,30.6719989 23.9543068,30.540922 23.9543068,30.540922 L23.9543068,28.2798451 C23.9543068,28.2798451 23.3316915,28.1815375 22.6107684,28.1815375 C21.5949223,28.1815375 21.1689223,28.541999 21.1689223,28.541999 C20.8739993,28.7386144 20.7429223,29.0663067 20.7429223,29.4923066 C20.7429223,29.7544605 20.8084608,29.9838451 20.9067685,30.1476912 C20.9395377,30.2132297 20.9723069,30.2787681 21.1689223,30.4098451 Z M62.9496901,24.413076 C62.9169208,24.544153 62.654767,25.2323068 62.5892285,25.4616914 C62.5564593,25.5599991 62.4909208,25.5927683 62.3926131,25.5927683 C62.3926131,25.5927683 62.0976901,25.5272299 61.8355362,25.5272299 C61.6716901,25.5272299 61.4095363,25.5599991 61.1801517,25.6255375 C60.950767,25.691076 60.7541517,25.8221529 60.5575363,25.9859991 C60.3609209,26.1498452 60.229844,26.4119991 60.1315363,26.7069221 C60.0332286,27.0018452 59.9676902,27.4933836 59.9676902,28.0176913 L59.9676902,31.687845 C59.9676902,31.7861527 59.9021517,31.8516912 59.803844,31.8516912 L58.4930748,31.8516912 C58.3947671,31.8516912 58.3292287,31.7861527 58.3292287,31.687845 L58.3292287,24.3147684 C58.3292287,24.2164607 58.3947671,24.1509222 58.4603056,24.1509222 L59.7383056,24.1509222 C59.8366132,24.1509222 59.8693825,24.2164607 59.8693825,24.3147684 L59.8693825,24.9046145 C60.0659978,24.6424607 60.3936901,24.413076 60.6886132,24.2819991 C60.9835363,24.1509222 61.3439978,24.0526145 61.9666132,24.0853838 C62.2943055,24.118153 62.7203054,24.1836914 62.7858439,24.2164607 C62.9169208,24.2492299 62.9824593,24.2819991 62.9496901,24.413076 Z M50.7923059,21.0050762 C50.8250751,21.0050762 50.9233828,21.0706146 50.8906136,21.1689223 L50.4973828,22.2175377 C50.4646136,22.2830761 50.4318443,22.3486146 50.2679982,22.2830761 C50.235229,22.2830761 50.1696905,22.2503069 50.0058444,22.2175377 C49.9075367,22.1847684 49.7436905,22.1847684 49.6126136,22.1847684 C49.4159982,22.1847684 49.2521521,22.2175377 49.0883059,22.2503069 C48.9244598,22.2830761 48.7933829,22.3813838 48.6623059,22.5124607 C48.531229,22.6435377 48.4001521,22.8073838 48.3018444,23.0367684 C48.105229,23.5610761 48.0396906,24.118153 48.0396906,24.1509222 L49.6126136,24.1509222 C49.7436905,24.1509222 49.7764598,24.2164607 49.7764598,24.3147684 L49.5798444,25.3306145 C49.5470751,25.4944606 49.4159982,25.4616914 49.4159982,25.4616914 L47.7775368,25.4616914 L46.7289214,31.7861527 C46.5978445,32.4415373 46.4667676,32.9986142 46.3029214,33.4573834 C46.1390753,33.9161526 45.9424599,34.2438449 45.6475368,34.5715372 C45.385383,34.8664603 45.0904599,35.0958449 44.7299984,35.1941526 C44.4023061,35.3252295 43.9763061,35.390768 43.5175369,35.390768 C43.2881523,35.390768 43.0587677,35.390768 42.7966139,35.3252295 C42.5999985,35.2924603 42.5016908,35.259691 42.3378446,35.1941526 C42.2723062,35.1613834 42.2395369,35.0958449 42.2723062,34.9975372 C42.3050754,34.8992295 42.5999985,34.112768 42.6327677,33.9816911 C42.6983062,33.8506142 42.7966139,33.9161526 42.7966139,33.9161526 C42.8949215,33.9489219 42.96046,33.9816911 43.0587677,34.0144603 C43.1898446,34.0472295 43.3209215,34.0472295 43.4519984,34.0472295 C43.6813831,34.0472295 43.8779984,34.0144603 44.0418446,33.9489219 C44.23846,33.8833834 44.3695369,33.7523065 44.5006138,33.5884603 C44.6316907,33.4246142 44.7299984,33.1952296 44.8610753,32.9003065 C44.959383,32.6053834 45.0576907,32.1793835 45.1559984,31.687845 L46.2701522,25.4944606 L45.1887676,25.4944606 C45.0576907,25.4944606 45.0249215,25.4289222 45.0249215,25.3306145 L45.2215368,24.3147684 C45.2543061,24.1509222 45.385383,24.1836914 45.385383,24.1836914 L46.4995368,24.1836914 L46.5650753,23.8559991 C46.7289214,22.8729223 47.0566137,22.11923 47.5481521,21.6276915 C48.0396906,21.1361531 48.7606136,20.8739993 49.6453828,20.8739993 C49.9075367,20.8739993 50.1369213,20.9067685 50.3335367,20.9395377 C50.4646136,20.9067685 50.6284597,20.9395377 50.7923059,21.0050762 Z M28.7058451,31.6550758 C28.7058451,31.7533835 28.6403067,31.8189219 28.5747682,31.8189219 L27.263999,31.8189219 C27.1656913,31.8189219 27.1329221,31.7533835 27.1329221,31.6550758 L27.1329221,21.1361531 C27.1329221,21.0706146 27.1984606,20.9723069 27.263999,20.9723069 L28.5747682,20.9723069 C28.6730759,20.9723069 28.7058451,21.0378454 28.7058451,21.1361531 L28.7058451,31.6550758 Z" id="Combined-Shape" fill="#FFFFFF"></path>
            </g>
        </g>
    </g>
</svg>