<?xml version="1.0" encoding="UTF-8"?>
<svg width="165px" height="32px" viewBox="0 0 165 32" version="1.1" xmlns="http://www.w3.org/2000/svg" xmlns:xlink="http://www.w3.org/1999/xlink">
    <!-- Generator: Sketch 48.2 (47327) - http://www.bohemiancoding.com/sketch -->
    <title>phunware copy</title>
    <desc>Created with Sketch.</desc>
    <defs></defs>
    <g id="Mockup---FINAL" stroke="none" stroke-width="1" fill="none" fill-rule="evenodd" transform="translate(-345.000000, -1183.000000)">
        <g id="phunware-copy" transform="translate(345.000000, 1183.000000)" fill-rule="nonzero">
            <path d="M15.690184,31.3803681 C7.03798379,31.3803681 0,24.3423843 0,15.690184 C0,7.03798379 7.03798379,0 15.690184,0 C24.3423843,0 31.3803681,7.03798379 31.3803681,15.690184 C31.3803681,24.3423843 24.3423843,31.3803681 15.690184,31.3803681 Z M15.690184,1.61421647 C7.94194501,1.61421647 1.6465008,7.90966068 1.6465008,15.6578997 C1.6465008,23.4061388 7.94194501,29.701583 15.690184,29.701583 C23.4384231,29.701583 29.7338673,23.4061388 29.7338673,15.6578997 C29.7338673,7.94194501 23.4384231,1.61421647 15.690184,1.61421647 Z" id="Shape" fill="#2F7DE1"></path>
            <path d="M20.4663176,15.5587204 C20.0706421,15.5587204 19.7409125,15.8873795 19.7409125,16.2817704 L19.7409125,20.8172656 L16.9382107,17.9250657 C16.641454,17.6292726 16.5095622,17.5306748 16.2128055,17.5306748 C15.9160488,17.5306748 15.784157,17.6292726 15.4874003,17.9250657 L12.6187526,20.8172656 L12.6187526,16.3146363 C12.6187526,16.3146363 12.6187526,16.3146363 12.6187526,16.2817704 L12.6187526,14.4741455 L18.0592914,14.4741455 C19.8068584,14.4741455 21.2576687,13.0609115 21.2576687,11.2861525 C21.2576687,9.54425942 19.8398313,8.09815951 18.0592914,8.09815951 L11.8603745,8.09815951 C11.4646989,8.09815951 11.1349693,8.42681858 11.1349693,8.82120947 L11.1349693,16.2817704 L11.1349693,17.3334794 L11.1349693,22.5591586 C11.1349693,22.9535495 11.4646989,23.2822086 11.8603745,23.2822086 C12.1571312,23.2822086 12.289023,23.1836109 12.5857797,22.8878177 L16.1468596,19.2725679 L19.7079395,22.8878177 C20.0046961,23.1836109 20.136588,23.2822086 20.4333447,23.2822086 C20.8290202,23.2822086 21.1587498,22.9535495 21.1587498,22.5591586 L21.1587498,16.3146363 C21.1917228,15.8873795 20.8619932,15.5587204 20.4663176,15.5587204 Z M12.5857797,9.51139351 L18.0263184,9.51139351 C19.0484802,9.51139351 19.7409125,10.3659071 19.7409125,11.2861525 C19.7409125,12.2063979 19.0484802,13.0609115 18.0263184,13.0609115 L12.5857797,13.0609115 L12.5857797,9.51139351 Z" id="Shape" fill="#000000"></path>
            <g id="Group" transform="translate(39.478528, 10.122699)" fill="#000000">
                <path d="M6.09260318,0.354685316 C8.06000629,0.354685316 9.67835401,1.99913542 9.67835401,3.99827084 C9.67835401,5.99740626 8.06000629,7.64185636 6.09260318,7.64185636 L1.77700926,7.64185636 L1.77700926,10.9952448 C1.77700926,11.4466625 1.42795387,11.8013478 0.951969247,11.8013478 C0.475984624,11.8013478 0.126929233,11.4466625 0.126929233,10.9630007 L0.126929233,1.19303243 C0.126929233,0.741614752 0.475984624,0.354685316 0.951969247,0.354685316 L6.09260318,0.354685316 Z M1.77700926,1.9668913 L1.77700926,6.02965038 L6.09260318,6.02965038 C7.23496628,6.02965038 8.02827399,5.06232679 8.02827399,3.99827084 C8.02827399,2.93421489 7.23496628,1.9668913 6.09260318,1.9668913 L1.77700926,1.9668913 Z" id="Shape"></path>
                <path d="M24.1165543,6.54555629 L16.5642649,6.54555629 L16.5642649,10.9630007 C16.5642649,11.4466625 16.2152095,11.8013478 15.7392249,11.8013478 C15.2632403,11.8013478 14.9141849,11.4466625 14.9141849,10.9630007 L14.9141849,1.12854419 C14.9141849,0.644882393 15.2632403,0.290197077 15.7392249,0.290197077 C16.1834772,0.290197077 16.5642649,0.644882393 16.5642649,1.12854419 L16.5642649,4.93335031 L24.1165543,4.93335031 L24.1165543,1.12854419 C24.1165543,0.644882393 24.4656097,0.290197077 24.9415943,0.290197077 C25.4175789,0.290197077 25.7666343,0.644882393 25.7666343,1.12854419 L25.7666343,10.9630007 C25.7666343,11.4466625 25.4175789,11.8013478 24.9415943,11.8013478 C24.4656097,11.8013478 24.1165543,11.4466625 24.1165543,10.9630007 L24.1165543,6.54555629 Z" id="Shape"></path>
                <path d="M31.6688436,1.12854419 C31.6688436,0.644882393 32.0496313,0.290197077 32.4938836,0.290197077 C32.938136,0.290197077 33.3189237,0.644882393 33.3189237,1.12854419 L33.3189237,6.02965038 C33.3189237,8.31898287 35.1593975,10.2213859 37.4123914,10.2213859 C39.6653853,10.2213859 41.5058592,8.35122699 41.5058592,6.02965038 L41.5058592,1.12854419 C41.5058592,0.644882393 41.8549146,0.290197077 42.3308992,0.290197077 C42.8068838,0.290197077 43.1559392,0.644882393 43.1559392,1.12854419 L43.1559392,6.02965038 C43.1559392,9.25406234 40.5856222,11.865836 37.4123914,11.865836 C34.2391606,11.865836 31.6688436,9.25406234 31.6688436,6.02965038 L31.6688436,1.12854419 Z" id="Shape"></path>
                <path d="M50.7399609,3.12767961 L50.7399609,10.9630007 C50.7399609,11.4466625 50.3909055,11.8013478 49.9149209,11.8013478 C49.4706686,11.8013478 49.0898809,11.4466625 49.0898809,10.9630007 L49.0898809,1.12854419 C49.0898809,0.644882393 49.4389362,0.290197077 49.9149209,0.290197077 C50.232244,0.290197077 50.4226378,0.386929436 50.7399609,0.709370633 L58.7682349,8.93162115 L58.7682349,1.12854419 C58.7682349,0.644882393 59.1172903,0.290197077 59.5932749,0.290197077 C60.0375272,0.290197077 60.4183149,0.644882393 60.4183149,1.12854419 L60.4183149,10.9630007 C60.4183149,11.4466625 60.0692595,11.8013478 59.5932749,11.8013478 C59.2759518,11.8013478 59.085558,11.7046154 58.7682349,11.3821742 L50.7399609,3.12767961 Z" id="Shape"></path>
                <path d="M72.6669859,5.19130327 C72.984309,5.19130327 73.1747028,5.28803563 73.4920259,5.61047682 L76.6335244,8.93162115 L76.6335244,1.12854419 C76.6335244,0.644882393 76.9825798,0.290197077 77.4585644,0.290197077 C77.934549,0.290197077 78.2836044,0.644882393 78.2836044,1.12854419 L78.2836044,10.9630007 C78.2836044,11.4466625 77.934549,11.8013478 77.4585644,11.8013478 C77.1412413,11.8013478 76.9508475,11.7046154 76.6335244,11.3821742 L72.6352536,7.25492693 L68.6369827,11.3821742 C68.3196596,11.7046154 68.1292658,11.8013478 67.8119427,11.8013478 C67.3676904,11.8013478 66.9869027,11.4466625 66.9869027,10.9630007 L66.9869027,1.12854419 C66.9869027,0.644882393 67.3359581,0.290197077 67.8119427,0.290197077 C68.256195,0.290197077 68.6369827,0.644882393 68.6369827,1.12854419 L68.6369827,8.93162115 L71.8736782,5.61047682 C72.1910013,5.32027975 72.3496628,5.19130327 72.6669859,5.19130327 Z" id="Shape"></path>
                <path d="M84.3762076,11.3499301 C84.0588845,11.6723713 83.8684907,11.7691037 83.5511676,11.7691037 C83.1069153,11.7691037 82.7261276,11.4144184 82.7261276,10.9307566 C82.7261276,10.7050477 82.8213245,10.511583 82.9799861,10.3181183 L92.7218047,0.709370633 C93.0391278,0.386929436 93.1977893,0.290197077 93.5468447,0.290197077 C94.0228293,0.290197077 94.3718847,0.644882393 94.3718847,1.12854419 L94.3718847,10.9630007 C94.3718847,11.4466625 94.0228293,11.8013478 93.5468447,11.8013478 C93.1025924,11.8013478 92.7218047,11.4466625 92.7218047,10.9630007 L92.7218047,8.31898287 L87.4542415,8.31898287 L84.3762076,11.3499301 Z M92.7218047,3.12767961 L89.1043215,6.70677689 L92.7218047,6.70677689 L92.7218047,3.12767961 Z" id="Shape"></path>
                <path d="M106.081106,0.354685316 C108.04851,0.354685316 109.666857,1.83791482 109.666857,3.83705024 C109.666857,5.61047682 108.429297,6.93248573 106.779217,7.25492693 L109.762054,10.4470948 C110.047645,10.7372918 110.142842,11.2854419 109.825519,11.575639 C109.508196,11.8980802 108.87355,11.8013478 108.556227,11.4466625 L104.684885,7.31941516 L101.797245,7.31941516 L101.797245,10.9952448 C101.797245,11.4466625 101.448189,11.8013478 100.972205,11.8013478 C100.527953,11.8013478 100.147165,11.4466625 100.147165,10.9630007 L100.147165,1.19303243 C100.147165,0.741614752 100.49622,0.354685316 100.972205,0.354685316 L106.081106,0.354685316 Z M101.765513,1.9668913 L101.765513,5.70720918 L106.081106,5.70720918 C107.22347,5.70720918 108.016777,4.90110619 108.016777,3.83705024 C108.016777,2.77299429 107.22347,1.9668913 106.081106,1.9668913 L101.765513,1.9668913 Z" id="Shape"></path>
                <path d="M124.009861,10.1246536 C124.485845,10.1246536 124.834901,10.4470948 124.834901,10.9307566 C124.834901,11.4144184 124.485845,11.7368596 124.009861,11.7368596 L116.140248,11.7368596 C115.695996,11.7368596 115.315208,11.3821742 115.315208,10.8985124 L115.315208,1.22527655 C115.315208,0.773858872 115.664264,0.386929436 116.140248,0.386929436 L124.041593,0.386929436 C124.517578,0.386929436 124.866633,0.709370633 124.866633,1.19303243 C124.866633,1.6444501 124.517578,1.99913542 124.041593,1.99913542 L116.965288,1.99913542 L116.965288,5.12681503 L122.391513,5.12681503 C122.867498,5.12681503 123.216553,5.44925622 123.216553,5.93291802 C123.216553,6.41657981 122.867498,6.73902101 122.391513,6.73902101 L116.965288,6.73902101 L116.965288,10.1568977 L124.009861,10.1568977 L124.009861,10.1246536 Z" id="Shape"></path>
            </g>
        </g>
    </g>
</svg>